HIERARCHY
ROOT Hips
{
    OFFSET 0.000000 0.000000 0.000000
    CHANNELS 6 Xposition Yposition Zposition Zrotation Xrotation Yrotation
    JOINT Spine
    {
        OFFSET -0.000000 14.517291 0.000000
        CHANNELS 3 Zrotation Xrotation Yrotation
        JOINT Spine1
        {
            OFFSET -0.000000 37.558300 0.000000
            CHANNELS 3 Zrotation Xrotation Yrotation
            JOINT Neck
            {
                OFFSET -0.000000 37.404057 3.400369
                CHANNELS 3 Zrotation Xrotation Yrotation
                JOINT Head
                {
                    OFFSET -0.000000 24.785618 -3.540803
                    CHANNELS 3 Zrotation Xrotation Yrotation
                    End Site
                    {
                        OFFSET -0.000000 35.408028 0.000000
                    }
                }
            }
            JOINT LeftShoulder
            {
                OFFSET 6.992933 33.973492 -0.192664
                CHANNELS 3 Zrotation Xrotation Yrotation
                JOINT LeftArm
                {
                    OFFSET 21.527611 0.000000 0.000000
                    CHANNELS 3 Zrotation Xrotation Yrotation
                    JOINT LeftForeArm
                    {
                        OFFSET 56.353916 0.000000 0.000000
                        CHANNELS 3 Zrotation Xrotation Yrotation
                        JOINT LeftHand
                        {
                            OFFSET 47.774071 0.000000 0.000000
                            CHANNELS 3 Zrotation Xrotation Yrotation
                            End Site
                            {
                                OFFSET 26.556021 0.000000 0.000000
                            }
                        }
                    }
                }
            }
            JOINT RightShoulder
            {
                OFFSET -7.065357 33.973492 -0.192664
                CHANNELS 3 Zrotation Xrotation Yrotation
                JOINT RightArm
                {
                    OFFSET -21.527611 0.000000 0.000000
                    CHANNELS 3 Zrotation Xrotation Yrotation
                    JOINT RightForeArm
                    {
                        OFFSET -56.353916 0.000000 0.000000
                        CHANNELS 3 Zrotation Xrotation Yrotation
                        JOINT RightHand
                        {
                            OFFSET -47.774071 0.000000 0.000000
                            CHANNELS 3 Zrotation Xrotation Yrotation
                            End Site
                            {
                                OFFSET -26.556021 0.000000 0.000000
                            }
                        }
                    }
                }
            }
        }
    }
    JOINT LeftUpLeg
    {
        OFFSET 17.704014 0.000000 0.000000
        CHANNELS 3 Zrotation Xrotation Yrotation
        JOINT LeftLeg
        {
            OFFSET -0.000000 -81.181816 0.000000
            CHANNELS 3 Zrotation Xrotation Yrotation
            JOINT LeftFoot
            {
                OFFSET -0.000000 -62.821102 0.000000
                CHANNELS 3 Zrotation Xrotation Yrotation
                JOINT LeftToeBase
                {
                    OFFSET -0.000000 -11.507608 26.556021
                    CHANNELS 3 Zrotation Xrotation Yrotation
                    End Site
                    {
                        OFFSET -0.000000 0.000000 7.081605
                    }
                }
            }
        }
    }
    JOINT RightUpLeg
    {
        OFFSET -17.704014 0.000000 0.000000
        CHANNELS 3 Zrotation Xrotation Yrotation
        JOINT RightLeg
        {
            OFFSET -0.000000 -81.181816 0.000000
            CHANNELS 3 Zrotation Xrotation Yrotation
            JOINT RightFoot
            {
                OFFSET -0.000000 -62.821102 0.000000
                CHANNELS 3 Zrotation Xrotation Yrotation
                JOINT RightToeBase
                {
                    OFFSET -0.000000 -11.507608 26.556021
                    CHANNELS 3 Zrotation Xrotation Yrotation
                    End Site
                    {
                        OFFSET -0.000000 0.000000 7.081605
                    }
                }
            }
        }
    }
}
MOTION
Frames:    11
Frame Time:    0.008333
15.867630    155.475510    -118.930344    -2.169938    -4.503126    41.633274    -2.062496    -3.189345    -2.742166    -3.272936    6.033810    -0.724986    -5.591270    1.096764    -21.744946    23.665760    1.626604    -18.981243    9.433527    3.881277    -22.251760    -30.289658    25.155325    -49.979130    -13.822953    0.547488    -106.578537    -1.650337    -17.850368    -7.004439    -2.890302    6.266057    -7.323212    36.925129    23.771467    31.519453    -1.175660    -21.513935    0.733410    4.034643    -21.000324    15.339754    18.521208    -2.983432    1.452128    -13.965815    35.301445    -17.692425    4.527171    -28.433514    43.369690    0.000000    0.000000    0.000000    -16.774576    -17.453262    -12.798831    7.924977    19.590075    -15.416916    5.499453    11.031522    -13.877846    0.000000    0.000000    0.000000    
15.890607    155.475769    -118.946693    -2.162791    -4.469413    41.577728    -2.074349    -3.206511    -2.741431    -3.257611    6.043935    -0.725098    -5.603678    1.094285    -21.728647    23.663475    1.625553    -18.962141    9.413967    3.877981    -22.238331    -30.142126    25.509396    -49.758350    -11.832412    -1.290749    -106.524475    -7.383091    -16.527182    -8.391838    -2.911246    6.264669    -7.297666    36.903496    23.711554    31.616638    -1.183947    -21.488020    0.729507    4.045657    -20.971958    15.369035    18.481609    -2.974211    1.500526    -13.965095    35.291859    -17.674356    4.517421    -28.430687    43.363029    0.000000    0.000000    0.000000    -16.801561    -17.501722    -12.768854    7.921085    19.609282    -15.386189    5.505067    11.037040    -13.880310    0.000000    0.000000    0.000000    
15.921071    155.471512    -118.955078    -2.147566    -4.457216    41.527630    -2.067401    -3.208694    -2.734738    -3.259756    6.061399    -0.722271    -5.614970    1.086555    -21.720112    23.671846    1.624453    -18.949810    9.403385    3.874905    -22.226706    -30.164495    25.507805    -49.758347    -11.827394    -1.275807    -106.529427    -7.434065    -16.503233    -8.405674    -2.925489    6.246399    -7.285753    36.862595    23.649326    31.718102    -1.147003    -21.428572    0.741761    4.062119    -20.911037    15.347644    18.448004    -2.946075    1.560458    -13.945415    35.295200    -17.677620    4.503805    -28.447260    43.351635    0.000000    0.000000    0.000000    -16.818464    -17.515627    -12.733047    7.921780    19.606682    -15.374951    5.512145    11.046240    -13.885120    0.000000    0.000000    0.000000    
15.942333    155.466553    -118.970337    -2.137222    -4.437070    41.478176    -2.066397    -3.210057    -2.732115    -3.253403    6.067413    -0.721525    -5.625761    1.077108    -21.701160    23.666986    1.622035    -18.927786    9.381576    3.883575    -22.200083    -30.162067    25.501926    -49.773335    -11.810936    -1.280854    -106.528900    -7.531892    -16.477547    -8.432370    -2.949872    6.237593    -7.262143    36.812286    23.576170    31.844484    -1.102808    -21.381281    0.750197    4.083984    -20.858519    15.420857    18.417562    -2.938070    1.590191    -13.957908    35.302834    -17.648193    4.509578    -28.446976    43.356792    0.000000    0.000000    0.000000    -16.838299    -17.546385    -12.712531    7.922970    19.617655    -15.352680    5.491005    11.048446    -13.892515    0.000000    0.000000    0.000000    
15.962231    155.465286    -118.986740    -2.128387    -4.414243    41.433304    -2.060143    -3.199710    -2.717338    -3.263579    6.044806    -0.716866    -5.649079    1.083033    -21.698656    23.701075    1.633469    -18.920252    9.376987    3.906549    -22.199886    -30.168829    25.487436    -49.783104    -11.817837    -1.261019    -106.527908    -7.579303    -16.462978    -8.449709    -2.946903    6.239326    -7.257397    36.743507    23.485899    31.978336    -1.046436    -21.324041    0.750611    4.105978    -20.797306    15.460038    18.385803    -2.934913    1.621645    -13.963981    35.310261    -17.635544    4.513167    -28.442196    43.364967    0.000000    0.000000    0.000000    -16.855936    -17.578327    -12.703797    7.900489    19.630379    -15.310654    5.522867    11.061782    -13.891890    0.000000    0.000000    0.000000    
15.981373    155.461761    -118.996498    -2.117554    -4.399023    41.394684    -2.056355    -3.194867    -2.703229    -3.271235    6.042012    -0.711854    -5.649162    1.072110    -21.687563    23.702377    1.637798    -18.908676    9.376313    3.925569    -22.196674    -30.182343    25.472536    -49.799583    -11.821060    -1.244102    -106.520721    -7.647167    -16.443436    -8.461710    -2.946298    6.231683    -7.242106    36.659523    23.471947    32.090046    -1.023052    -21.311102    0.797400    4.099220    -20.783670    15.497027    18.364977    -2.925553    1.640640    -13.991435    35.310902    -17.598881    4.523937    -28.438303    43.372753    0.000000    0.000000    0.000000    -16.874058    -17.597080    -12.688781    7.907782    19.631685    -15.309081    5.490662    11.064452    -13.878657    0.000000    0.000000    0.000000    
15.995157    155.457565    -119.005630    -2.110026    -4.385884    41.359776    -2.052623    -3.197422    -2.693084    -3.264522    6.055585    -0.708447    -5.673405    1.047147    -21.685745    23.704576    1.651366    -18.904547    9.360258    3.924885    -22.188616    -30.196669    25.453474    -49.796249    -11.818647    -1.223627    -106.511177    -7.757440    -16.406586    -8.512198    -2.976748    6.218618    -7.230417    36.586788    23.469683    32.224548    -1.026755    -21.310286    0.846713    4.118131    -20.779060    15.524909    18.346560    -2.922227    1.659036    -13.997024    35.326672    -17.585798    4.528866    -28.439253    43.370491    0.000000    0.000000    0.000000    -16.883015    -17.615173    -12.670094    7.899849    19.630682    -15.302522    5.502474    11.065930    -13.875066    0.000000    0.000000    0.000000    
16.006779    155.453308    -119.013283    -2.104868    -4.371885    41.333134    -2.044454    -3.202809    -2.691458    -3.272740    6.063632    -0.707328    -5.683258    1.034199    -21.671160    23.711084    1.650067    -18.885925    9.353418    3.935890    -22.179741    -30.193096    25.472075    -49.804390    -11.796721    -1.259108    -106.519211    -7.792876    -16.410954    -8.518826    -2.983771    6.219338    -7.195309    36.504292    23.432127    32.347549    -1.022537    -21.274450    0.921016    4.161264    -20.735743    15.560680    18.331289    -2.923772    1.675313    -14.012803    35.335804    -17.570206    4.518098    -28.450851    43.374107    0.000000    0.000000    0.000000    -16.895218    -17.631197    -12.662741    7.895586    19.630154    -15.297977    5.507741    11.068659    -13.863001    0.000000    0.000000    0.000000    
16.013380    155.450363    -119.020607    -2.104012    -4.362924    41.311321    -2.032817    -3.198810    -2.683337    -3.276330    6.062608    -0.704548    -5.676142    1.032323    -21.664047    23.694399    1.616305    -18.874355    9.345120    3.935250    -22.174021    -30.209333    25.468687    -49.806362    -11.783127    -1.243824    -106.502914    -7.859672    -16.367079    -8.546097    -2.997916    6.212569    -7.170103    36.435032    23.341768    32.496361    -0.996943    -21.243721    0.913716    4.208616    -20.700861    15.510484    18.326508    -2.923702    1.683682    -14.036038    35.335320    -17.534693    4.550796    -28.427698    43.364723    0.000000    0.000000    0.000000    -16.901299    -17.647017    -12.646132    7.900304    19.632715    -15.299206    5.505663    11.067015    -13.858044    0.000000    0.000000    0.000000    
16.020458    155.449097    -119.023178    -2.098082    -4.358749    41.293995    -2.018853    -3.186865    -2.677639    -3.288915    6.052404    -0.702484    -5.657666    1.015616    -21.658592    23.649830    1.604898    -18.873524    9.336709    3.948372    -22.169527    -30.207340    25.488649    -49.810863    -11.769297    -1.268787    -106.502945    -7.882824    -16.370552    -8.553850    -3.002182    6.216180    -7.136137    36.335613    23.286467    32.660217    -0.987310    -21.223488    0.896069    4.257716    -20.667934    15.696135    18.316441    -2.915120    1.704488    -14.031779    35.336838    -17.543547    4.534976    -28.442139    43.376133    0.000000    0.000000    0.000000    -16.906065    -17.651489    -12.646192    7.894686    19.633970    -15.288475    5.503789    11.065853    -13.852801    0.000000    0.000000    0.000000    
16.024921    155.446243    -119.025040    -2.091003    -4.357091    41.279945    -2.016118    -3.175365    -2.673202    -3.278822    6.053937    -0.701532    -5.657225    1.022537    -21.655500    23.634377    1.553068    -18.861837    9.320538    3.946825    -22.151966    -30.206902    25.503502    -49.820927    -11.764490    -1.272904    -106.495888    -7.928474    -16.361938    -8.567295    -3.021398    6.215455    -7.111498    36.247288    23.219658    32.822311    -0.996652    -21.213921    0.958863    4.202006    -20.665190    15.689252    18.311890    -2.899977    1.713502    -14.048285    35.327503    -17.516775    4.530089    -28.448643    43.368820    0.000000    0.000000    0.000000    -16.913992    -17.651890    -12.621711    7.909731    19.629368    -15.321818    5.490773    11.061479    -13.837043    0.000000    0.000000    0.000000    
